<?xml version="1.0" standalone="no"?>
<!DOCTYPE svg PUBLIC "-//W3C//DTD SVG 20010904//EN"
 "http://www.w3.org/TR/2001/REC-SVG-20010904/DTD/svg10.dtd">
<svg version="1.0" xmlns="http://www.w3.org/2000/svg"
 width="797.000000pt" height="304.000000pt" viewBox="0 0 797.000000 304.000000"
 preserveAspectRatio="xMidYMid meet">

<g transform="translate(0.000000,304.000000) scale(0.100000,-0.100000)"
fill="#000000" stroke="none">
<path d="M723 2906 c-133 -32 -279 -146 -337 -261 -26 -49 -33 -56 -141 -114
-63 -34 -117 -66 -120 -71 -3 -5 16 -21 42 -36 165 -93 153 -81 182 -169 34
-100 55 -140 97 -188 l34 -37 -16 -38 c-87 -199 -106 -406 -55 -605 21 -81 81
-209 134 -286 101 -148 286 -284 458 -336 30 -9 110 -43 179 -76 153 -72 216
-89 346 -96 151 -8 274 18 429 92 70 34 102 56 181 128 23 20 44 37 48 37 8 0
98 -59 106 -70 8 -10 247 -168 360 -238 479 -295 555 -337 687 -383 61 -21
118 -25 128 -9 12 19 -37 81 -119 149 -157 132 -946 760 -975 777 -28 17 -29
19 -16 45 61 118 76 385 30 543 -29 102 -58 160 -119 248 -84 120 -239 259
-316 283 -14 4 -41 20 -60 36 -55 43 -163 96 -253 124 -94 29 -93 28 -128 75
-15 19 -38 47 -52 62 -14 15 -32 37 -41 50 -35 50 -134 152 -196 202 -186 151
-338 200 -497 162z m1054 -814 c205 -66 356 -216 430 -427 25 -72 28 -93 28
-215 0 -122 -3 -143 -28 -215 -97 -276 -331 -450 -618 -463 -94 -4 -118 -1
-200 22 -387 111 -593 486 -475 862 114 360 498 554 863 436z"/>
<path d="M1841 1664 c-106 -38 -136 -93 -136 -244 0 -124 23 -171 104 -212 46
-24 67 -28 135 -28 135 0 198 27 239 103 19 36 22 57 22 142 -1 132 -26 185
-110 227 -54 28 -193 35 -254 12z m187 -115 c44 -15 65 -66 60 -142 -4 -49 -9
-64 -30 -82 -54 -47 -177 -40 -217 12 -16 19 -21 40 -21 84 0 72 16 108 55
125 37 16 111 18 153 3z"/>
<path d="M1147 1663 c-4 -3 -7 -111 -7 -240 l0 -233 205 0 206 0 -3 58 -3 57
-142 3 -143 3 0 169 c0 157 -1 170 -19 180 -22 11 -84 14 -94 3z"/>
<path d="M2582 1662 c-100 -36 -132 -93 -132 -234 1 -140 43 -212 143 -239 43
-12 245 -8 266 5 6 4 11 32 11 62 l0 55 -47 -8 c-27 -4 -83 -8 -126 -8 -74 0
-80 2 -103 28 -20 24 -24 39 -24 95 0 92 6 108 47 128 28 13 53 15 117 11 45
-3 93 -9 109 -13 l27 -6 0 60 c0 71 2 70 -140 78 -77 4 -105 1 -148 -14z"/>
<path d="M5655 1671 l-60 -6 -3 -238 -2 -238 52 3 53 3 5 75 c3 41 8 74 13 73
4 -2 32 -3 62 -3 l54 0 51 -75 c50 -74 51 -75 95 -75 24 0 47 4 50 10 3 5 -10
41 -30 79 l-36 68 25 37 c32 48 40 85 31 162 -5 54 -11 67 -36 88 -16 14 -46
30 -67 36 -38 10 -153 11 -257 1z m236 -121 c21 -12 25 -41 9 -70 -11 -21
-105 -34 -160 -22 -30 7 -35 12 -38 41 -6 57 -1 61 88 61 45 0 90 -5 101 -10z"/>
<path d="M3217 1658 c-17 -14 -39 -60 -143 -301 -35 -82 -62 -153 -58 -158 3
-5 28 -9 55 -9 49 0 50 0 69 45 l19 45 109 0 109 0 18 -45 17 -46 52 3 c48 3
51 5 49 28 0 14 -12 50 -26 80 -32 72 -88 199 -123 280 -37 87 -40 90 -88 90
-23 0 -50 -6 -59 -12z m82 -194 c11 -31 21 -60 21 -65 0 -12 -97 -12 -104 0
-7 11 41 121 52 121 5 0 19 -25 31 -56z"/>
<path d="M3677 1663 c-4 -3 -7 -111 -7 -240 l0 -233 208 2 207 3 3 49 c2 32
-1 52 -10 57 -7 5 -75 9 -150 9 l-138 0 0 174 0 173 -37 7 c-49 8 -68 8 -76
-1z"/>
<path d="M4252 1428 l3 -233 53 -3 52 -3 0 125 c0 69 4 127 9 131 10 6 20 -6
79 -98 33 -52 40 -58 67 -55 24 2 37 14 62 53 50 78 75 107 84 98 5 -5 10 -62
11 -128 l3 -120 50 0 50 0 3 233 2 232 -58 0 c-55 0 -59 -2 -76 -32 -50 -86
-122 -188 -133 -188 -7 0 -20 12 -29 28 -10 15 -42 64 -72 110 l-54 82 -54 0
-54 0 2 -232z"/>
<path d="M5110 1623 c-7 -21 -24 -60 -37 -86 -52 -104 -142 -332 -134 -340 14
-14 93 -4 102 13 5 8 13 27 19 43 l10 27 113 0 113 0 19 -42 c19 -41 22 -43
65 -43 42 0 45 2 43 26 -1 14 -30 91 -66 170 -35 79 -75 171 -89 204 l-25 60
-61 3 -60 3 -12 -38z m100 -139 c11 -25 23 -57 26 -70 6 -23 4 -24 -50 -24
-48 0 -56 3 -56 19 0 26 41 121 52 121 5 0 18 -21 28 -46z"/>
<path d="M6202 1428 l3 -233 55 0 55 0 5 85 5 85 31 3 c36 4 63 -21 136 -120
42 -58 43 -58 95 -58 28 0 54 4 57 9 3 5 -28 54 -69 110 -41 55 -75 111 -75
123 0 12 9 31 19 42 43 47 130 170 125 178 -3 4 -29 8 -59 8 -49 0 -56 -3 -76
-32 -13 -18 -45 -59 -73 -90 -41 -49 -54 -58 -82 -58 l-33 0 -3 88 -3 87 -58
3 -57 3 2 -233z"/>
<path d="M6802 1428 l3 -233 185 -3 c102 -1 195 0 208 3 19 5 22 12 22 50 0
24 -4 46 -8 49 -5 3 -70 6 -145 7 -107 1 -139 4 -148 16 -9 10 -10 19 -2 31 8
14 32 18 119 22 l109 5 0 50 0 50 -112 3 c-98 2 -113 5 -118 21 -14 46 -2 50
153 53 l147 3 0 50 0 50 -208 3 -207 2 2 -232z"/>
<path d="M7362 1608 l3 -53 82 -3 83 -3 2 -177 3 -177 55 0 55 0 3 177 2 177
83 3 82 3 0 50 0 50 -228 3 -228 2 3 -52z"/>
</g>
</svg>
